# xmcd
#
# Track frame offsets:
#  225
#  14138
#  30057
#  44804
#  61121
#  75258
#  89317
#  105041
#  118299
#  133046
#
# Disc length: 1996 seconds
#
# Revision: 0
# Processed by: cddbd v1.4PL0 Copyright (c) Steve Scherf et al.
# Submitted via: AltoMP3_Maker 3.0
#
DISCID=7407c90a
DTITLE=Intacto - No  Se Lo Digas A Ella
DYEAR=1900
DGENRE=
TTITLE0=No Se Lo Digas A Ella-crls
TTITLE1=Te Llevare-crls
TTITLE2=La Pero Parte Del Amor-crls
TTITLE3=Bella-crls
TTITLE4=Contigo-crls
TTITLE5=Las Ganas De Quererte-crls
TTITLE6=Con Tu Piel En Mi Piel-crls
TTITLE7=De Aqui A La Luna-crls
TTITLE8=Gracias-crls
TTITLE9=Sueños De Amor-crls
EXTD=
EXTT0=
EXTT1=
EXTT2=
EXTT3=
EXTT4=
EXTT5=
EXTT6=
EXTT7=
EXTT8=
EXTT9=
PLAYORDER=
